<?xml version="1.0" encoding="UTF-8"?>
<svg id="Layer_2" data-name="Layer 2" xmlns="http://www.w3.org/2000/svg" viewBox="0 0 317.53 282.98">
  <defs>
    <style>
      .cls-1 {
        fill: #07485b;
      }
    </style>
  </defs>
  <g id="Layer_1-2" data-name="Layer 1">
    <g>
      <path class="cls-1" d="M197.99,135.02c-14.82,0-26.88,12.06-26.88,26.87s12.06,26.87,26.88,26.87,26.87-12.05,26.87-26.87-12.05-26.87-26.87-26.87Z"/>
      <path class="cls-1" d="M197.99,238.76c-42.39,0-76.88-34.48-76.88-76.87s34.49-76.87,76.88-76.87c18.78,0,36.01,6.77,49.38,18V35.53c0-19.62-15.9-35.53-35.52-35.53H35.53C15.91,0,0,15.91,0,35.53v176.31c0,19.62,15.91,35.53,35.53,35.53h176.32c9.6,0,18.32-3.81,24.71-10.01l-5.89-5.89c-10.17,4.8-21.27,7.29-32.68,7.29ZM103.44,201.76h-61.18c-3.17,0-5.74-2.57-5.74-5.74s2.57-5.74,5.74-5.74h61.18c3.17,0,5.74,2.57,5.74,5.74s-2.57,5.74-5.74,5.74ZM42.01,142.7h56.78c3.03,0,5.49,2.46,5.49,5.49v.5c0,3.03-2.46,5.49-5.49,5.49h-56.78c-3.03,0-5.49-2.46-5.49-5.49v-.5c0-3.03,2.46-5.49,5.49-5.49ZM103.44,106.75h-61.18c-3.25,0-5.89-2.64-5.89-5.88s2.64-5.89,5.89-5.89h61.18c3.25,0,5.89,2.64,5.89,5.89s-2.64,5.88-5.89,5.88ZM42,47.55h163.38c3.16,0,5.74,2.57,5.74,5.74s-2.58,5.74-5.74,5.74H42c-3.16,0-5.74-2.58-5.74-5.74s2.58-5.74,5.74-5.74Z"/>
      <path class="cls-1" d="M314.6,265.91l-67.04-67.04c7.72-10.32,12.3-23.12,12.3-36.98s-4.65-26.87-12.49-37.24c-11.31-14.95-29.24-24.63-49.38-24.63-34.12,0-61.88,27.75-61.88,61.87s27.76,61.87,61.88,61.87c13.05,0,25.18-4.07,35.18-11l11.84,11.84,55.45,55.46c1.96,1.95,4.51,2.92,7.07,2.92s5.12-.97,7.07-2.92c3.91-3.91,3.91-10.24,0-14.15ZM197.99,203.76c-23.09,0-41.88-18.78-41.88-41.87s18.79-41.87,41.88-41.87,41.87,18.78,41.87,41.87-18.79,41.87-41.87,41.87Z"/>
    </g>
  </g>
</svg>